<?xml version="1.0" encoding="iso-8859-1"?>
<!-- Generator: Adobe Illustrator 19.0.0, SVG Export Plug-In . SVG Version: 6.00 Build 0)  -->
<svg version="1.1" id="Capa_1" xmlns="http://www.w3.org/2000/svg" xmlns:xlink="http://www.w3.org/1999/xlink" x="0px" y="0px"
	 viewBox="0 0 512 512" style="enable-background:new 0 0 512 512;" xml:space="preserve">
<linearGradient id="SVGID_1_" gradientUnits="userSpaceOnUse" x1="84.1347" y1="103.6004" x2="168.0446" y2="263.6304" gradientTransform="matrix(1.0039 0 0 -1.0039 0.1922 516.5618)">
	<stop  offset="0" style="stop-color:#7ECCFD"/>
	<stop  offset="1" style="stop-color:#3FA9F5"/>
</linearGradient>
<path style="fill:url(#SVGID_1_);" d="M180.597,283.953L96.022,445.24l-43.329,4.926c-7.355,0.836-12.65-6.895-9.213-13.451
	l92.4-176.211L180.597,283.953z"/>
<linearGradient id="SVGID_2_" gradientUnits="userSpaceOnUse" x1="159.7616" y1="139.5267" x2="216.5916" y2="247.8868" gradientTransform="matrix(1.0039 0 0 -1.0039 0.1922 516.5618)">
	<stop  offset="0" style="stop-color:#E2EDF2"/>
	<stop  offset="1" style="stop-color:#9FC7E2"/>
</linearGradient>
<path style="fill:url(#SVGID_2_);" d="M225.313,307.4l-84.574,161.288l-11.445-21.38c-1.784-3.333-5.421-5.24-9.177-4.813
	l-24.094,2.744l84.574-161.288L225.313,307.4z"/>
<linearGradient id="SVGID_3_" gradientUnits="userSpaceOnUse" x1="196.2624" y1="100.8363" x2="282.7124" y2="265.6863" gradientTransform="matrix(1.0039 0 0 -1.0039 0.1922 516.5618)">
	<stop  offset="0" style="stop-color:#FF5D00"/>
	<stop  offset="1" style="stop-color:#D54003"/>
</linearGradient>
<path style="fill:url(#SVGID_3_);" d="M270.03,330.848l-92.4,176.211c-3.437,6.556-12.808,6.597-16.303,0.071l-20.587-38.442
	L225.314,307.4L270.03,330.848z"/>
<linearGradient id="SVGID_4_" gradientUnits="userSpaceOnUse" x1="139.4072" y1="100.7091" x2="186.3372" y2="190.2091" gradientTransform="matrix(1.0039 0 0 -1.0039 0.1922 516.5618)">
	<stop  offset="0" style="stop-color:#9FC7E2;stop-opacity:0"/>
	<stop  offset="1" style="stop-color:#4975AD"/>
</linearGradient>
<polygon style="fill:url(#SVGID_4_);" points="129.892,380.649 151.16,448.814 225.313,307.4 180.597,283.953 "/>
<linearGradient id="SVGID_5_" gradientUnits="userSpaceOnUse" x1="106.5871" y1="146.4191" x2="127.6871" y2="186.6591" gradientTransform="matrix(1.0039 0 0 -1.0039 0.1922 516.5618)">
	<stop  offset="0" style="stop-color:#3FA9F5;stop-opacity:0"/>
	<stop  offset="1" style="stop-color:#1F88C9"/>
</linearGradient>
<polygon style="fill:url(#SVGID_5_);" points="180.597,283.953 129.895,380.644 108.625,312.48 135.88,260.504 "/>
<linearGradient id="SVGID_6_" gradientUnits="userSpaceOnUse" x1="425.4831" y1="103.6105" x2="341.5631" y2="263.6305" gradientTransform="matrix(1.0039 0 0 -1.0039 0.1922 516.5618)">
	<stop  offset="0" style="stop-color:#7ECCFD"/>
	<stop  offset="1" style="stop-color:#3FA9F5"/>
</linearGradient>
<path style="fill:url(#SVGID_6_);" d="M331.404,283.953l84.574,161.287l43.329,4.926c7.355,0.836,12.65-6.895,9.213-13.451
	l-92.4-176.211L331.404,283.953z"/>
<linearGradient id="SVGID_7_" gradientUnits="userSpaceOnUse" x1="349.8538" y1="139.5308" x2="293.0338" y2="247.8909" gradientTransform="matrix(1.0039 0 0 -1.0039 0.1922 516.5618)">
	<stop  offset="0" style="stop-color:#E2EDF2"/>
	<stop  offset="1" style="stop-color:#9FC7E2"/>
</linearGradient>
<path style="fill:url(#SVGID_7_);" d="M286.687,307.4l84.574,161.288l11.445-21.38c1.784-3.333,5.421-5.24,9.177-4.813l24.094,2.744
	l-84.574-161.288L286.687,307.4z"/>
<linearGradient id="SVGID_8_" gradientUnits="userSpaceOnUse" x1="313.3529" y1="100.8404" x2="226.9029" y2="265.6904" gradientTransform="matrix(1.0039 0 0 -1.0039 0.1922 516.5618)">
	<stop  offset="0" style="stop-color:#FF5D00"/>
	<stop  offset="1" style="stop-color:#D54003"/>
</linearGradient>
<path style="fill:url(#SVGID_8_);" d="M241.97,330.848l92.4,176.211c3.437,6.556,12.808,6.597,16.303,0.071l20.587-38.442
	L286.686,307.4L241.97,330.848z"/>
<linearGradient id="SVGID_9_" gradientUnits="userSpaceOnUse" x1="370.2128" y1="100.7104" x2="323.2728" y2="190.2203" gradientTransform="matrix(1.0039 0 0 -1.0039 0.1922 516.5618)">
	<stop  offset="0" style="stop-color:#9FC7E2;stop-opacity:0"/>
	<stop  offset="1" style="stop-color:#4975AD"/>
</linearGradient>
<polygon style="fill:url(#SVGID_9_);" points="382.109,380.649 360.841,448.814 286.687,307.4 331.404,283.953 "/>
<linearGradient id="SVGID_10_" gradientUnits="userSpaceOnUse" x1="393.7738" y1="164.0809" x2="372.6738" y2="204.3108" gradientTransform="matrix(1.0039 0 0 -1.0039 0.1922 516.5618)">
	<stop  offset="0" style="stop-color:#3FA9F5;stop-opacity:0"/>
	<stop  offset="1" style="stop-color:#1F88C9"/>
</linearGradient>
<polygon style="fill:url(#SVGID_10_);" points="331.404,283.953 382.106,380.644 425.286,355.081 376.12,260.504 "/>
<linearGradient id="SVGID_11_" gradientUnits="userSpaceOnUse" x1="163.7384" y1="418.9931" x2="483.8984" y2="98.8232" gradientTransform="matrix(1.0039 0 0 -1.0039 0.1922 516.5618)">
	<stop  offset="0" style="stop-color:#FF931E"/>
	<stop  offset="1" style="stop-color:#FF5D00"/>
</linearGradient>
<path style="fill:url(#SVGID_11_);" d="M447.792,198.919l-29.11,34.144c-3.06,3.589-4.572,8.244-4.206,12.947l3.485,44.731
	c0.681,8.733-5.087,16.666-13.604,18.713l-43.622,10.482c-4.596,1.104-8.565,3.99-11.035,8.021l-23.418,38.239
	c-4.581,7.48-13.923,10.515-22.025,7.155l-41.429-17.182c-4.371-1.813-9.283-1.813-13.654,0l-41.43,17.18
	c-8.102,3.36-17.444,0.325-22.025-7.155l-23.418-38.239c-2.469-4.032-6.438-6.917-11.034-8.021l-43.622-10.482
	c-8.517-2.047-14.285-9.98-13.604-18.713l3.485-44.729c0.366-4.702-1.146-9.358-4.206-12.947l-29.11-34.143
	c-5.68-6.662-5.68-16.463,0-23.125l29.11-34.144c3.06-3.589,4.572-8.244,4.206-12.947l-3.485-44.731
	c-0.681-8.733,5.087-16.666,13.604-18.713l43.622-10.482c4.596-1.104,8.565-3.99,11.035-8.021l23.418-38.239
	c4.581-7.48,13.923-10.515,22.025-7.155l41.43,17.181c4.371,1.813,9.283,1.813,13.654,0l41.43-17.18
	c8.102-3.36,17.444-0.325,22.025,7.155l23.418,38.239c2.469,4.032,6.438,6.917,11.034,8.021l43.622,10.482
	c8.517,2.047,14.285,9.98,13.604,18.713l-3.485,44.729c-0.366,4.702,1.146,9.358,4.206,12.947l29.11,34.143
	C453.472,182.455,453.472,192.257,447.792,198.919z"/>
<linearGradient id="SVGID_12_" gradientUnits="userSpaceOnUse" x1="398.3773" y1="184.3519" x2="253.9973" y2="328.732" gradientTransform="matrix(1.0039 0 0 -1.0039 0.1922 516.5618)">
	<stop  offset="0" style="stop-color:#FF5D00;stop-opacity:0"/>
	<stop  offset="1" style="stop-color:#D54003"/>
</linearGradient>
<path style="fill:url(#SVGID_12_);" d="M447.792,198.919c1.313-1.541,2.31-3.254,3.016-5.053L352.822,95.88
	c-24.29-25.699-58.67-41.761-96.822-41.761c-73.584,0-133.236,59.652-133.236,133.236c0,38.152,16.062,72.532,41.761,96.822
	l75.702,75.702l8.947-3.711c4.371-1.812,9.283-1.812,13.654,0l41.429,17.18c8.102,3.36,17.444,0.325,22.025-7.155l23.418-38.239
	c2.469-4.032,6.438-6.917,11.034-8.021l43.622-10.482c8.517-2.047,14.285-9.98,13.604-18.713l-3.485-44.731
	c-0.366-4.702,1.146-9.358,4.206-12.947L447.792,198.919z"/>
<linearGradient id="SVGID_13_" gradientUnits="userSpaceOnUse" x1="192.2188" y1="390.5135" x2="412.2588" y2="170.4734" gradientTransform="matrix(1.0039 0 0 -1.0039 0.1922 516.5618)">
	<stop  offset="0" style="stop-color:#FFE7A5"/>
	<stop  offset="0.966" style="stop-color:#FFBF5C"/>
</linearGradient>
<circle style="fill:url(#SVGID_13_);" cx="256" cy="187.352" r="133.24"/>
<g>
	<path style="fill:#DB9E36;" d="M220.178,150.155c0-4.04,1.631-7.227,4.896-9.558l24.247-23.314
		c1.708-1.709,3.806-2.565,6.294-2.565c2.798,0,5.323,0.739,7.579,2.215c2.251,1.479,3.38,3.46,3.38,5.945v154.341
		c0,2.488-1.246,4.469-3.731,5.945c-2.489,1.479-5.362,2.215-8.627,2.215c-3.42,0-6.335-0.737-8.742-2.215
		c-2.412-1.476-3.615-3.457-3.615-5.945V147.591l-8.16,10.257c-1.554,1.556-3.264,2.332-5.129,2.332
		c-2.332,0-4.313-1.048-5.945-3.147C220.992,154.934,220.178,152.644,220.178,150.155z"/>
	<path style="fill:#DB9E36;" d="M279.263,141.294c0-0.708,0.249-1.438,0.748-2.193c0.5-0.754,1.105-1.131,1.818-1.131
		c0.428,0,1.023,0.277,1.783,0.831c0.76,0.555,1.782,1.108,3.065,1.663c1.283,0.555,2.829,0.831,4.635,0.831
		c4.04,0,6.06-1.281,6.06-3.843c0-1.376-0.59-2.456-1.769-3.239c-1.18-0.783-2.606-1.399-4.28-1.85
		c-1.675-0.451-3.337-0.961-4.987-1.53c-1.651-0.569-3.066-1.542-4.245-2.918c-1.179-1.375-1.769-3.155-1.769-5.338
		c0-2.77,0.991-5.153,2.971-7.149c1.981-1.996,5.023-2.994,9.125-2.994c2.689,0,5.129,0.414,7.322,1.238
		c2.194,0.825,3.29,1.804,3.29,2.935c0,0.661-0.272,1.427-0.813,2.299c-0.542,0.873-1.215,1.309-2.016,1.309
		c-0.283,0-1.25-0.354-2.9-1.061c-1.651-0.708-3.231-1.061-4.74-1.061c-1.886,0-3.314,0.428-4.28,1.281
		c-0.967,0.854-1.45,1.804-1.45,2.847c0,1.138,0.589,2.04,1.769,2.705c1.178,0.665,2.617,1.211,4.315,1.637
		c1.698,0.427,3.369,0.949,5.016,1.565c1.646,0.616,3.049,1.685,4.208,3.203c1.16,1.519,1.74,3.465,1.74,5.836
		c0,3.051-1.085,5.445-3.254,7.182c-2.169,1.738-5.234,2.605-9.196,2.605c-3.349,0-6.214-0.589-8.595-1.768
		C280.453,144.006,279.263,142.709,279.263,141.294z"/>
	<path style="fill:#DB9E36;" d="M309.892,135.352V99.913c0-0.66,0.376-1.226,1.131-1.698c0.754-0.471,1.602-0.708,2.547-0.708
		c0.943,0,1.804,0.237,2.582,0.708c0.778,0.472,1.168,1.038,1.168,1.698v12.945h8.63c0.612,0,1.107,0.272,1.486,0.813
		c0.377,0.542,0.566,1.192,0.566,1.945c0,0.755-0.189,1.403-0.566,1.946c-0.379,0.543-0.873,0.813-1.486,0.813h-8.63v16.977
		c0,1.698,0.365,2.9,1.096,3.607c0.731,0.708,2.016,1.061,3.855,1.061h2.476c0.991,0,1.768,0.307,2.334,0.92
		c0.566,0.613,0.849,1.368,0.849,2.264c0,0.897-0.283,1.651-0.849,2.264c-0.566,0.613-1.343,0.92-2.334,0.92h-2.476
		C314.017,146.387,309.892,142.709,309.892,135.352z"/>
</g>
<g>
</g>
<g>
</g>
<g>
</g>
<g>
</g>
<g>
</g>
<g>
</g>
<g>
</g>
<g>
</g>
<g>
</g>
<g>
</g>
<g>
</g>
<g>
</g>
<g>
</g>
<g>
</g>
<g>
</g>
</svg>
