<svg width="405.44" height="338.58" xmlns="http://www.w3.org/2000/svg">

 <title/>
 <g>
  <title>background</title>
  <rect fill="none" id="canvas_background" height="402" width="582" y="-1" x="-1"/>
 </g>
 <g>
  <title>Layer 1</title>
  <path fill="#fbfcf2" id="svg_1" d="m159.47,137.87c-16.44,-0.28 -31.84,-6.63 -46.16,-13.52c-19,-9.12 -38.6,-20 -61.28,-19.46c-10.55,0.26 -21.25,3.37 -28.74,9.7c-8.26,7 -11.87,17.26 -11.9,27.19c-0.07,23.14 16.59,43.1 19.31,65.8c2.36,19.75 -7.08,39.55 -2,59.15c7.55,29 39.08,44.8 71,50.47c26.42,4.69 62.15,7.05 82.81,-10.76c10.49,-9 18.87,-23 33.78,-23.08c11.71,-0.1 20.41,8.74 30.59,13.67c17.5,8.48 41,4.67 56,-6.73c23.74,-18 21.43,-43.11 18.72,-68a123.17,123.17 0 0 1 3.06,-43c3.46,-14 10.88,-27.66 5.9,-42.16c-8.31,-24.22 -46.32,-34.87 -72.94,-34.44c-20.15,0.32 -39.75,5.77 -57.33,14c-16.72,7.79 -32,17.23 -52.15,16.86" class="cls-1"/>
  <circle stroke-width="2px" stroke-miterlimit="10" stroke="#2e576d" fill="none" id="svg_2" transform="rotate(-53.779998779296875 -9.22000026702884,273.9800109863281) " r="0" cy="420.060011" cx="256.28" class="cls-2"/>
  <circle fill="#2e576d" id="svg_3" transform="rotate(-53.779998779296875 -91.44999694824224,328.83999633789057) " r="0" cy="583.419996" cx="187.030003" class="cls-3"/>
  <path fill="#2e576d" id="svg_4" d="m258.9,255.94l-4.73,6.45c-1.14,1.56 1.46,3.06 2.59,1.51l4.73,-6.45c1.14,-1.56 -1.46,-3.06 -2.59,-1.51z" class="cls-3"/>
  <path fill="#2e576d" id="svg_5" d="m261.82,261l-6.45,-4.73c-1.56,-1.14 -3.06,1.46 -1.51,2.59l6.45,4.73c1.56,1.14 3.06,-1.46 1.51,-2.59z" class="cls-3"/>
  <path opacity="0.15" fill="#3f5a7c" id="svg_6" d="m241,221.08c0,1 0,1.91 0,2.86a116.74,116.74 0 0 1 -16.59,57.42c-0.91,1.53 -1.87,3.05 -2.86,4.53q-2.48,3.75 -5.23,7.29a117.5,117.5 0 1 1 -175.8,-155.28q3.33,-3.33 6.94,-6.38c1.26,-1.09 2.55,-2.13 3.86,-3.15a117.59,117.59 0 0 1 119.1,-15q4.95,2.15 9.65,4.75c1.46,0.79 2.9,1.63 4.31,2.49l0.62,3.21l-4.18,5l-7.82,9.36l6,26.4l27.6,-13.2l3.77,-9.41a117.55,117.55 0 0 1 8.52,10.5l0.59,0.82a116.94,116.94 0 0 1 21.52,67.79z" class="cls-4"/>
  <path fill="#ffc742" id="svg_7" d="m254,204.09a115.49,115.49 0 0 1 -111.2,115.41c-1.41,0.06 -2.84,0.09 -4.27,0.09q-3.32,0 -6.59,-0.19a115.5,115.5 0 1 1 47.75,-223.25l0.16,0.87l1.15,5.98l3.18,16.58l0.15,0.73l0,0.3l0.62,3.21l-4.18,5l-7.77,9.36l6,26.4l27.6,-13.2l3.77,-9.41l0.22,-0.55l0.09,-0.24l4.32,-10.86l3.57,-8.94l0.5,0a115.24,115.24 0 0 1 34.93,82.71z" class="cls-5"/>
  <path opacity="0.5" fill="#8a7683" id="svg_8" d="m142.5,320.43c-2,0.1 -4,0.15 -6,0.15a115.5,115.5 0 1 1 0,-231c2,0 4,0 6,0.15a115.51,115.51 0 0 0 0,230.7z" class="cls-6"/>
  <path opacity="0.5" fill="#8a7683" id="svg_9" d="m137.75,90.08c-1.57,-0.15 -3.16,-0.27 -4.75,-0.35c1.57,-0.08 3.16,-0.13 4.75,-0.13c0.42,0 0.83,0 1.25,0a115.1,115.1 0 0 1 40.85,7.4l1.15,6a114.77,114.77 0 0 0 -43.25,-12.92z" class="cls-6"/>
  <path opacity="0.5" fill="#8a7683" id="svg_10" d="m254.5,205.08a115.52,115.52 0 0 1 -115.5,115.5c-0.42,0 -0.83,0 -1.25,0c-1.59,0 -3.18,0 -4.75,-0.13c1.59,-0.08 3.18,-0.2 4.75,-0.35s3.38,-0.34 5,-0.58a115.49,115.49 0 0 0 72.25,-189.2l3.57,-8.94a115.28,115.28 0 0 1 35.9,83.7l0.03,0z" class="cls-6"/>
  <path fill="#dd9e1f" opacity="0.5" id="svg_11" d="m234,204.09a95.5,95.5 0 1 1 -170.86,-58.62l0.34,-0.45a95.56,95.56 0 0 1 116.59,-26.94q2.16,1 4.26,2.19l0,0.3l0.62,3.21l-4.18,5l-7.77,9.4l6,26.4l27.6,-13.2l3.77,-9.41l0.22,-0.55a95.24,95.24 0 0 1 23.41,62.67z" class="cls-7"/>
  <path opacity="0.2" fill="#3f5a7c" id="svg_13" d="m233.11,203.34a95,95 0 0 1 -94,94a1.5,1.5 0 0 0 0,3a98.07,98.07 0 0 0 97,-97a1.5,1.5 0 0 0 -3,0z" class="cls-9"/>
  <path fill="#2e576d" id="svg_14" d="m47.81,188.33a93.65,93.65 0 0 1 91.3,-77.49c3.86,0 3.87,-6 0,-6c-47.64,0.43 -88.78,34.88 -97.09,81.89c-0.67,3.78 5.11,5.4 5.79,1.6z" class="cls-3"/>
  <path fill="#2e576d" id="svg_15" d="m46.61,203.34q0,-2.46 0.12,-4.92a3,3 0 0 0 -3,-3a3.07,3.07 0 0 0 -3,3q-0.12,2.46 -0.12,4.92a3,3 0 0 0 6,0z" class="cls-3"/>
  <path fill="#2e576d" id="svg_16" d="m227.81,277c-31.4,37.71 -83.73,52.25 -129.88,35c-40.61,-15.18 -70.09,-53.58 -74.13,-96.76a116.44,116.44 0 0 1 24.57,-83c2.37,-3 -1.85,-7.27 -4.24,-4.24c-32.13,40.61 -35.77,98.31 -7.42,141.94a121.25,121.25 0 0 0 195.35,11.3c2.45,-2.95 -1.77,-7.21 -4.24,-4.24l-0.01,0z" class="cls-3"/>
  <path fill="#2e576d" id="svg_17" d="m221.41,124a116.65,116.65 0 0 1 28.89,108.32c-0.92,3.75 4.87,5.35 5.79,1.6a122.88,122.88 0 0 0 -30.43,-114.16c-2.67,-2.8 -6.91,1.45 -4.24,4.24l-0.01,0z" class="cls-3"/>
  <path fill="#2e576d" id="svg_18" d="m83.36,103.87a117.07,117.07 0 0 1 94.79,-7.05c3.65,1.3 5.21,-4.5 1.6,-5.79a123,123 0 0 0 -99.42,7.66c-3.4,1.83 -0.38,7 3,5.18l0.03,0z" class="cls-3"/>
  <path fill="#ffffff" id="svg_19" d="m213.23,158.69a54.63,54.63 0 0 1 9.66,20.31c0.46,1.87 3.35,1.08 2.89,-0.8a56.67,56.67 0 0 0 -10,-21c-1.15,-1.52 -3.76,0 -2.59,1.51l0.04,-0.02z" class="cls-11"/>
  <circle fill="#2e576d" id="svg_20" r="4.5" cy="112.08" cx="34.5" class="cls-3"/>
  <circle stroke-width="2px" stroke-miterlimit="10" stroke="#2e576d" fill="none" id="svg_21" r="4.5" cy="273.08" cx="5.5" class="cls-2"/>
  <path fill="#2e576d" id="svg_22" d="m4.5,143.58l0,8a1.5,1.5 0 0 0 3,0l0,-8a1.5,1.5 0 0 0 -3,0z" class="cls-3"/>
  <path fill="#2e576d" id="svg_23" d="m10,146.08l-8,0a1.5,1.5 0 0 0 0,3l8,0a1.5,1.5 0 0 0 0,-3z" class="cls-3"/>
  <rect fill="#e4bd62" y="295.990004" x="330.670001" width="20.07" transform="rotate(-47.400001525878906 16.700000762939414,277.1600036621094) " ry="4.59" rx="4.59" id="_Path_" height="201.46" class="cls-12"/>
  <path fill="#bb9054" id="svg_24" d="m249.57,51.7l148.31,136.3l4.57,-5a3.57,3.57 0 0 0 -0.21,-5l-142.84,-131.3a3.85,3.85 0 0 0 -5.44,0.23l-4.39,4.77z" class="cls-13"/>
  <path fill="#a44c3e" opacity="0.5" id="svg_26" d="m293.65,93.6c5.29,4.56 10.8,8.87 15.88,13.67c2.55,2.4 5,4.95 7.39,7.46l3.4,3.51c0.64,0.66 3.62,3.07 2,1.45c-4.36,-4.45 -9.8,-8.08 -14.4,-12.31a178.45,178.45 0 0 1 -14.31,-14.7c-0.32,-0.37 -0.84,0.17 -0.53,0.53c9.16,10.61 19.73,19.76 30.61,28.55c0.37,0.3 0.87,-0.18 0.53,-0.53c-9.64,-10 -19.56,-19.1 -30.06,-28.16c-0.36,-0.31 -0.9,0.21 -0.53,0.53l0.02,0z" class="cls-15"/>
  <path fill="#a44c3e" opacity="0.5" id="svg_28" d="m359.62,164.07c5.29,4.56 10.8,8.87 15.88,13.67c2.55,2.4 5,4.95 7.39,7.46l3.4,3.51c0.64,0.66 3.62,3.07 2,1.45c-4.36,-4.45 -9.8,-8.08 -14.4,-12.31a178.45,178.45 0 0 1 -14.31,-14.7c-0.32,-0.37 -0.84,0.17 -0.53,0.53c9.16,10.61 19.73,19.76 30.61,28.55c0.37,0.3 0.87,-0.18 0.53,-0.53c-9.64,-10 -19.56,-19.1 -30.06,-28.16c-0.36,-0.31 -0.9,0.21 -0.53,0.53l0.02,0z" class="cls-15"/>
  <path fill="#a44c3e" opacity="0.5" id="svg_30" d="m249.86,50.75a255.91,255.91 0 0 0 31.45,31.47c11.87,10 24.62,18.83 35.55,30c10.27,10.47 19.2,22.12 29.6,32.49a340.47,340.47 0 0 0 32.33,28.44c0.38,0.29 0.76,-0.36 0.38,-0.65a338.74,338.74 0 0 1 -34.07,-30.22c-10.12,-10.26 -18.84,-21.77 -29,-31.93c-10.6,-10.57 -22.82,-19 -34.22,-28.64a255.41,255.41 0 0 1 -31.45,-31.47c-0.31,-0.37 -0.84,0.16 -0.53,0.53l-0.04,-0.02z" class="cls-15"/>
  <path fill="#a44c3e" opacity="0.5" id="svg_32" d="m279.5,82.54c17.27,21.18 39.58,36.63 58.45,56.16c18.14,18.78 35.42,37.75 57.41,52.2c0.4,0.27 0.78,-0.38 0.38,-0.65c-22.52,-14.8 -39.9,-34.34 -58.57,-53.44c-9.34,-9.55 -19.73,-17.83 -29.74,-26.62a236.67,236.67 0 0 1 -27.43,-28.19c-0.31,-0.37 -0.83,0.16 -0.53,0.53l0.03,0.01z" class="cls-15"/>
  <path fill="#a44c3e" opacity="0.5" id="svg_34" d="m247.87,54.27c10.48,14.08 24.52,24.37 36.26,37.23c12.11,13.27 23.36,26.45 38,37.07c0.39,0.28 0.77,-0.37 0.38,-0.65c-14.62,-10.59 -25.81,-23.74 -37.88,-37c-11.63,-12.76 -25.63,-23 -36.11,-37.02c-0.28,-0.38 -0.94,0 -0.65,0.38l0,-0.01z" class="cls-15"/>
  <path fill="#a44c3e" opacity="0.5" id="svg_36" d="m372.2,162.68c10.48,6.25 17.85,15.75 26.55,24.05c0.35,0.33 0.88,-0.2 0.53,-0.53c-8.75,-8.35 -16.18,-17.9 -26.7,-24.17a0.38,0.38 0 0 0 -0.38,0.65z" class="cls-15"/>
  <path fill="#a44c3e" opacity="0.5" id="svg_37" d="m371.82,162.37c7.52,9.94 17.24,17.2 27.11,24.64c0.39,0.29 0.76,-0.36 0.38,-0.65c-9.75,-7.36 -19.4,-14.55 -26.84,-24.37c-0.29,-0.38 -0.94,0 -0.65,0.38z" class="cls-15"/>
  <path fill="#a44c3e" opacity="0.5" id="svg_39" d="m333.73,125.28c10.48,6.25 17.85,15.75 26.55,24.05c0.35,0.33 0.88,-0.2 0.53,-0.53c-8.75,-8.35 -16.18,-17.9 -26.7,-24.17a0.38,0.38 0 0 0 -0.38,0.65z" class="cls-15"/>
  <path fill="#a44c3e" opacity="0.5" id="svg_40" d="m333.34,125c7.52,9.94 17.24,17.2 27.11,24.64c0.39,0.29 0.76,-0.36 0.38,-0.65c-9.75,-7.36 -19.4,-14.55 -26.84,-24.37c-0.29,-0.38 -0.94,0 -0.65,0.38z" class="cls-15"/>
  <path fill="#a44c3e" opacity="0.5" id="svg_42" d="m254,46.87c10.05,10.26 20.32,20.95 33.21,27.65c0.43,0.22 0.81,-0.42 0.38,-0.65c-12.83,-6.67 -23,-17.32 -33.06,-27.54c-0.34,-0.35 -0.87,0.19 -0.53,0.53l0,0.01z" class="cls-15"/>
  <path fill="#a44c3e" opacity="0.5" id="svg_43" d="m271.42,65.94a65.31,65.31 0 0 0 7.35,6.22a94.85,94.85 0 0 0 10.16,5.53c0.43,0.22 0.81,-0.43 0.38,-0.65c-3.07,-1.59 -6.29,-3.05 -9.22,-4.9a57.2,57.2 0 0 1 -8.09,-6.73c-0.35,-0.33 -0.88,0.2 -0.53,0.53l-0.05,0z" class="cls-15"/>
  <path fill="#a44c3e" opacity="0.5" id="svg_45" d="m287.26,81a152.71,152.71 0 0 0 19.31,13.9c7.65,4.85 14.21,11.09 20.73,17.34c0.35,0.33 0.88,-0.2 0.53,-0.53c-5.67,-5.43 -11.36,-10.94 -17.81,-15.44c-7.55,-5.26 -15.24,-9.66 -22.22,-15.76c-0.36,-0.32 -0.89,0.21 -0.53,0.53l-0.01,-0.04z" class="cls-15"/>
  <path fill="#a44c3e" opacity="0.5" id="svg_47" d="m326,115.19a152.71,152.71 0 0 0 19.31,13.86c7.65,4.85 14.21,11.09 20.73,17.34c0.35,0.33 0.88,-0.2 0.53,-0.53c-5.67,-5.43 -11.36,-10.94 -17.81,-15.44c-7.55,-5.26 -15.24,-9.66 -22.22,-15.76c-0.36,-0.32 -0.89,0.21 -0.53,0.53l-0.01,0z" class="cls-15"/>
  <path fill="#a44c3e" opacity="0.5" id="svg_49" d="m355.87,149.08a121.63,121.63 0 0 0 19.13,10.71c7.83,3.7 14.65,9.16 21.43,14.48c0.38,0.29 0.91,-0.23 0.53,-0.53c-6.36,-5 -12.75,-10.19 -20,-13.84s-14.09,-6.77 -20.68,-11.47c-0.39,-0.28 -0.77,0.37 -0.38,0.65l-0.03,0z" class="cls-15"/>
  <polygon fill="#ffffff" id="svg_50" points="355.76 160.77 354.9 161.71 354.52 161.38 355.38 160.44 355.76 160.77" class="cls-11"/>
  <path fill="#2e576d" id="svg_51" d="m247.6,58.27c2,-2.13 7.36,-10.3 10,-9.28c2.31,0.87 5.07,4.66 6.86,6.3l31.62,29.07l82.34,75.71l13.36,12.28c2.09,1.92 5.07,3.88 6.73,6.19s0.37,3.95 -1.24,5.7c-1.81,2 -4.5,6.62 -7.81,5.11c-2,-0.92 -4.1,-3.77 -5.7,-5.25l-73.12,-67.23l-39.84,-36.66l-14.19,-13c-2.44,-2.25 -5.88,-4.53 -7.85,-7.21c-0.62,-0.84 -1.7,-0.77 -0.7,-2.29c2.13,-3.23 -3.06,-6.24 -5.18,-3c-3,4.59 -0.11,7.94 3.11,10.91l10.72,9.85l38.9,35.77l81.73,75.14c2.52,2.31 5,4.74 7.57,7c7,6 12.16,0.08 16.94,-5.12c4.36,-4.74 5.09,-9.83 0.29,-14.45c-3,-2.85 -6.05,-5.56 -9.07,-8.34l-83.15,-76.56l-37.54,-34.52c-3.19,-2.94 -6.36,-5.9 -9.58,-8.81c-3.75,-3.38 -7.72,-4 -11.6,-0.09c-2.71,2.75 -5.24,5.7 -7.85,8.54s1.65,7.09 4.25,4.24z" class="cls-3"/>
  <path fill="#efefef" id="svg_52" d="m275.73,54.91a3,3 0 0 1 0,4.16l-19.43,19.43a2.95,2.95 0 0 1 -4.15,0l-6.93,-6.93l-44.14,44.14c-0.47,-4.62 1.21,-11.47 4.84,-19.38c4.87,-10.63 12.86,-22.7 23.11,-34.89l2.77,-3.29l-7.72,-7.73a2.94,2.94 0 0 1 0,-4.15l19.42,-19.43a3,3 0 0 1 4.16,0l7.73,7.72l3.29,-2.76c20.56,-17.3 40.73,-28 52.64,-28c0.57,0 1.11,0 1.62,0.08l-44.13,44.12l6.92,6.91z" class="cls-16"/>
  <path fill="#ffffff" id="svg_53" d="m230.55,48.71a2.94,2.94 0 0 0 0,4.15l7.72,7.73l-2.77,3.29c-10.25,12.19 -18.24,24.26 -23.11,34.89a64.7,64.7 0 0 0 -3.79,10.23l-5.91,5.91c-0.47,-4.62 1.21,-11.47 4.84,-19.38c4.87,-10.63 12.86,-22.7 23.11,-34.89l2.77,-3.29l-7.72,-7.73a2.94,2.94 0 0 1 0,-4.15l19.43,-19.47a3,3 0 0 1 4.16,0l2.41,2.4a2.87,2.87 0 0 0 -1.72,0.83l-19.42,19.48z" class="cls-11"/>
  <path fill="#2e576d" id="svg_54" d="m273.14,55.62c1.09,1.65 -12.11,13.1 -13.92,14.92c-0.91,0.91 -3.86,4.92 -5,4.95c-1.37,0 -5.7,-5.7 -6.84,-6.84a3,3 0 0 0 -4.24,0l-44.14,44.14l5.12,2.12c-0.7,-10.67 5.79,-21.59 11.18,-30.36a209,209 0 0 1 18.67,-25.07a3.07,3.07 0 0 0 0,-4.24c-1.41,-1.41 -7.71,-6.26 -7.51,-7.85c0.11,-0.87 2.76,-2.76 3.37,-3.37l6.14,-6.14l5.81,-5.88c0.65,-0.65 2.63,-3.42 3.57,-3.57c1.67,-0.26 6.42,5.93 7.93,7.44a3.08,3.08 0 0 0 4.24,0c8.72,-7.33 17.67,-14.33 27.49,-20.13c8.26,-4.88 18,-10.21 27.94,-9.71l-2.12,-5.12l-44.15,44.15a3,3 0 0 0 0,4.24l6.93,6.93c2.73,2.73 7,-1.51 4.24,-4.24l-6.93,-6.93l0,4.24l44.15,-44.14a3,3 0 0 0 -2.12,-5.16c-10.44,-0.52 -20.78,4.67 -29.59,9.73c-10.8,6.2 -20.57,13.88 -30.08,21.87l4.24,0c-3.29,-3.29 -8.36,-11 -13.85,-9.13c-1.85,0.61 -3.24,2.37 -4.57,3.7l-7.42,7.42l-7.42,7.42c-1.34,1.34 -3.08,2.73 -3.71,4.59c-1.84,5.45 5.89,10.58 9.14,13.83l0,-4.2c-7.43,8.77 -14.56,17.84 -20.49,27.77c-5.55,9.27 -11.87,20.77 -11.13,31.95a3,3 0 0 0 5.13,2.05l44.14,-44.14l-4.24,0c2.69,2.69 6.28,8 10.33,8.56s6.88,-3.51 9.43,-6.06l12,-12c3.07,-3.07 6.55,-6.25 3.51,-10.84c-2.17,-3.13 -7.37,-0.13 -5.23,3.1z" class="cls-3"/>
  <line stroke-width="2px" stroke-miterlimit="10" stroke="#2e576d" fill="none" id="svg_55" y2="92.58" y1="96.15" x2="179" x1="179.69" class="cls-2"/>
  <path fill="#2e576d" id="svg_56" d="m176.06,94.73l7,28.65l0.77,-2.92l-8.66,10.66c-2,2.48 -5.47,5.25 -5,8.65c1.14,8.56 4,17.18 5.91,25.6c0.47,2 2.74,2.57 4.41,1.79l15.36,-7.16l10,-4.63c1.47,-0.68 2.8,-1.09 3.8,-2.41c1.14,-1.5 1.82,-3.76 2.64,-5.45l5,-10.42l7.28,-15.05c1.67,-3.46 -3.5,-6.51 -5.18,-3l-6.85,14.16l-5.12,10.59c-0.87,1.81 -2.43,4 -2.88,6c-0.12,0.53 1.62,-0.59 0.36,-0.51a10,10 0 0 0 -2.69,1.25l-9.4,4.36l-15.32,7.11l4.41,1.79l-6,-26l-0.77,2.92l9.25,-11.39c2.2,-2.71 5,-4.86 4.28,-8.52c-1.8,-9.29 -4.55,-18.48 -6.81,-27.67c-0.92,-3.75 -6.71,-2.16 -5.79,1.6z" class="cls-3"/>
  <path fill="#2e576d" id="svg_57" d="m181.89,80.78l-4,-14c-1.06,-3.71 -6.85,-2.13 -5.79,1.6l4,14c1.06,3.71 6.85,2.13 5.79,-1.6z" class="cls-3"/>
  <path fill="#2e576d" id="svg_58" d="m230.29,115.95l12.44,-7.56c3.3,-2 0.28,-7.19 -3,-5.18l-12.44,7.56c-3.3,2 -0.28,7.19 3,5.18z" class="cls-3"/>
 </g>
</svg>