<svg id="Capa_1" enable-background="new 0 0 510 510" height="512" viewBox="0 0 510 510" width="512" xmlns="http://www.w3.org/2000/svg"><path d="m365.723 317.984-36.32 7.69-17.34-7.69h-112.16l-17.34 7.69-36.32-7.69c-10.405 0-17.859-10.128-14.66-20.1l35.28-109.81c2.05-6.37 7.97-10.69 14.66-10.69h148.92c6.69 0 12.61 4.32 14.66 10.69l35.28 109.81c3.21 10.02-4.31 20.1-14.66 20.1z" fill="#ffd17b"/><path d="m365.723 317.984-36.32 7.69-17.34-7.69h-56.08v-140.6h74.46c6.69 0 12.61 4.32 14.66 10.69l35.28 109.81c3.21 10.02-4.31 20.1-14.66 20.1z" fill="#fdbf00"/><path d="m471.5 138.156c-4.617-6.878-13.938-8.709-20.814-4.092l-34.136 22.92c-6.878 4.618-8.71 13.937-4.092 20.814 4.619 6.88 13.94 8.708 20.814 4.092l34.136-22.92c6.878-4.618 8.71-13.937 4.092-20.814z" fill="#ffd17b"/><path d="m95.417 156.984-34.136-22.92c-6.876-4.619-16.197-2.786-20.814 4.092-4.618 6.877-2.786 16.197 4.092 20.814l34.136 22.92c6.877 4.618 16.197 2.786 20.814-4.092 4.618-6.877 2.786-16.197-4.092-20.814z" fill="#ffd17b"/><path d="m255.983 51.408c-8.284 0-15 6.716-15 15v33.779c0 8.284 6.716 15 15 15s15-6.716 15-15v-33.779c0-8.284-6.716-15-15-15z" fill="#fdbf00"/><path d="m234.891 458.592h-219.484c-10.438 0-17.851-10.167-14.658-20.105l35.279-109.814c2.046-6.368 7.969-10.687 14.658-10.687h148.917c6.688 0 12.612 4.318 14.658 10.686l35.287 109.814c3.194 9.938-4.219 20.106-14.657 20.106z" fill="#ffd17b"/><path d="m234.891 458.592h-109.747v-140.605h74.459c6.688 0 12.612 4.318 14.658 10.686l35.287 109.814c3.194 9.937-4.219 20.105-14.657 20.105z" fill="#fdbf00"/><path d="m494.593 458.592h-219.484c-10.438 0-17.851-10.167-14.658-20.105l35.279-109.814c2.046-6.368 7.969-10.687 14.658-10.687h148.917c6.688 0 12.612 4.318 14.658 10.686l35.287 109.814c3.194 9.938-4.219 20.106-14.657 20.106z" fill="#ffd17b"/><path d="m494.593 458.592h-109.746v-140.605h74.459c6.688 0 12.612 4.318 14.658 10.686l35.287 109.814c3.193 9.937-4.22 20.105-14.658 20.105z" fill="#fdbf00"/></svg>