<svg height="496pt" viewBox="0 0 496 496.00742" width="496pt" xmlns="http://www.w3.org/2000/svg"><path d="m456.003906 496.007812v-24l-32-32v-32l-32-32h-24l-32-32h-24l-16 16h-24l-32 32v104" fill="#f8cf6a"/><path d="m456.003906 496.007812v-24l-32-32v-32l-32-32h-24l-32-32h-24l-16 16h-24l-32 32v104" fill="#eebc5a"/><path d="m440.003906 496.007812v-8l-32-32v-32l-32-32h-24l-32-32h-24l-16 16h-24l-16 16v104zm0 0" fill="#f8cf6a"/><path d="m280.003906 496.007812v-24l-16-16v-40l-24-24h-16l-24-24h-24l-24-24h-32l-32 32v32l-16 16h-24l-40 40v32" fill="#eebc5a"/><path d="m32.003906 440.007812-24 24v32h240v-8l-16-16v-40l-24-24h-16l-24-24h-24l-24-24h-16l-16 16v32l-16 16h-16l-16 16zm0 0" fill="#f8cf6a"/><g fill="#eebc5a"><path d="m192.003906 336.007812-16-24 24-24 16 16-8 32zm0 0"/><path d="m240.003906 240.007812h24l16 24-16 24h-16l-24-32zm0 0"/><path d="m48.003906 344.007812-16-24h-16l-8 16v24l32 8zm0 0"/><path d="m472.003906 40.007812c-17.671875 0-32-14.328124-32-32 0 17.671876-14.328125 32-32 32 17.671875 0 32 14.328126 32 32 0-17.671874 14.328125-32 32-32zm0 0"/><path d="m408.003906 88.007812c-17.671875 0-32-14.328124-32-32 0 17.671876-14.328125 32-32 32 17.671875 0 32 14.328126 32 32 0-17.671874 14.328125-32 32-32zm0 0"/></g><path d="m56.003906 160.007812h-24c-13.257812 0-24 10.742188-24 24 0 13.253907 10.742188 24 24 24h24" fill="#bc8f6f"/><path d="m9.476562 192.007812c3.304688 9.304688 12.09375 16 22.527344 16h24v-32h-24c-10.433594 0-19.222656 6.695313-22.527344 16zm0 0" fill="#cb9e78"/><path d="m120.003906 224.007812v136l-1.136718-1.136718c-30.007813-30.007813-46.863282-70.703125-46.863282-113.136719v-21.726563" fill="#656665"/><path d="m72.003906 245.734375c0 34.730469 11.449219 68.191406 32 95.679687v-101.40625h-32zm0 0" fill="#999"/><path d="m120.003906 144.007812v-136l-1.136718 1.136719c-30.007813 30.007813-46.863282 70.703125-46.863282 113.136719v21.726562" fill="#656665"/><path d="m72.003906 122.28125v21.726562h32v-117.410156c-20.550781 27.496094-32 60.953125-32 95.683594zm0 0" fill="#999"/><path d="m56.003906 144.007812h80v80h-80zm0 0" fill="#656665"/><path d="m56.003906 160.007812h56v64h-56zm0 0" fill="#999"/><path d="m440.003906 224.007812h32c8.839844 0 16-7.160156 16-16v-48c0-8.839843-7.160156-16-16-16h-32c-8.839844 0-16 7.160157-16 16v48c0 8.839844 7.160156 16 16 16zm0 0" fill="#656665"/><path d="m424.003906 160.007812v48c0 8.839844 7.160156 16 16 16h32v-64zm0 0" fill="#999"/><path d="m424.003906 160.007812h-288v48h288" fill="#bc8f6f"/><path d="m400.003906 176.007812h-264v32h264" fill="#cb9e78"/><path d="m288.003906 496.007812h-16v-20.6875l-13.65625-13.65625c-1.503906-1.496093-2.34375-3.535156-2.34375-5.65625v-36.6875l-19.3125-19.3125h-12.6875c-2.128906 0-4.160156-.839843-5.65625-2.34375l-21.65625-21.65625h-20.6875c-2.128906 0-4.160156-.839843-5.65625-2.34375l-21.65625-21.65625h-25.375l-27.3125 27.3125v28.6875c0 2.121094-.839844 4.160157-2.34375 5.65625l-16 16c-1.496094 1.503907-3.527344 2.34375-5.65625 2.34375h-20.6875l-35.3125 35.3125v28.6875h-15.99999975v-32c0-2.121093.83984375-4.160156 2.34374975-5.65625l40-40c1.496094-1.503906 3.527344-2.34375 5.65625-2.34375h20.6875l11.3125-11.3125v-28.6875c0-2.121093.839844-4.160156 2.34375-5.65625l32-32c1.496094-1.503906 3.527344-2.34375 5.65625-2.34375h32c2.128906 0 4.160156.839844 5.65625 2.34375l21.65625 21.65625h20.6875c2.128906 0 4.160156.839844 5.65625 2.34375l21.65625 21.65625h12.6875c2.128906 0 4.160156.839844 5.65625 2.34375l24 24c1.503906 1.496094 2.34375 3.535157 2.34375 5.65625v36.6875l13.65625 13.65625c1.503906 1.496094 2.34375 3.535157 2.34375 5.65625zm0 0"/><path d="m464.003906 496.007812h-16v-20.6875l-29.65625-29.65625c-1.503906-1.496093-2.34375-3.535156-2.34375-5.65625v-28.6875l-27.3125-27.3125h-20.6875c-2.128906 0-4.160156-.839843-5.65625-2.34375l-29.65625-29.65625h-17.375l-13.65625 13.65625c-1.496094 1.503907-3.527344 2.34375-5.65625 2.34375h-20.6875l-29.65625 29.65625-11.3125-11.3125 32-32c1.496094-1.503906 3.527344-2.34375 5.65625-2.34375h20.6875l13.65625-13.65625c1.496094-1.503906 3.527344-2.34375 5.65625-2.34375h24c2.128906 0 4.160156.839844 5.65625 2.34375l29.65625 29.65625h20.6875c2.128906 0 4.160156.839844 5.65625 2.34375l32 32c1.503906 1.496094 2.34375 3.535157 2.34375 5.65625v28.6875l29.65625 29.65625c1.503906 1.496094 2.34375 3.535157 2.34375 5.65625zm0 0"/><path d="m226.347656 469.664062-13.65625-13.65625h-12.6875c-2.128906 0-4.160156-.839843-5.65625-2.34375l-16-16c-1.503906-1.496093-2.34375-3.535156-2.34375-5.65625v-12.6875l-11.3125-11.3125h-28.6875v-16h32c2.128906 0 4.160156.839844 5.65625 2.34375l16 16c1.503906 1.496094 2.34375 3.535157 2.34375 5.65625v12.6875l11.3125 11.3125h12.6875c2.128906 0 4.160156.839844 5.65625 2.34375l16 16zm0 0"/><path d="m402.347656 485.664062-13.65625-13.65625h-12.6875c-2.128906 0-4.160156-.839843-5.65625-2.34375l-16-16c-1.503906-1.496093-2.34375-3.535156-2.34375-5.65625v-12.6875l-11.3125-11.3125h-28.6875v-16h32c2.128906 0 4.160156.839844 5.65625 2.34375l16 16c1.503906 1.496094 2.34375 3.535157 2.34375 5.65625v12.6875l11.3125 11.3125h12.6875c2.128906 0 4.160156.839844 5.65625 2.34375l16 16zm0 0"/><path d="m77.660156 485.664062-11.3125-11.3125 16-16c1.496094-1.503906 3.527344-2.34375 5.65625-2.34375h12.6875l13.65625-13.65625c1.496094-1.503906 3.527344-2.34375 5.65625-2.34375h16v16h-12.6875l-13.65625 13.65625c-1.496094 1.503907-3.527344 2.34375-5.65625 2.34375h-12.6875zm0 0"/><path d="m424.003906 216.007812h-288c-4.425781 0-8-3.585937-8-8v-48c0-4.417968 3.574219-8 8-8h288v16h-280v32h280zm0 0"/><path d="m472.003906 232.007812h-32c-13.230468 0-24-10.769531-24-24v-48c0-13.230468 10.769532-24 24-24h32c13.230469 0 24 10.769532 24 24v48c0 13.230469-10.769531 24-24 24zm-32-80c-4.417968 0-8 3.589844-8 8v48c0 4.40625 3.582032 8 8 8h32c4.414063 0 8-3.59375 8-8v-48c0-4.410156-3.585937-8-8-8zm0 0"/><path d="m56.003906 216.007812h-24c-17.648437 0-31.99999975-14.351562-31.99999975-32 0-17.648437 14.35156275-32 31.99999975-32h24v16h-24c-8.824218 0-16 7.175782-16 16 0 8.824219 7.175782 16 16 16h24zm0 0"/><path d="m136.003906 232.007812h-80c-4.425781 0-8-3.585937-8-8v-80c0-4.417968 3.574219-8 8-8h80c4.421875 0 8 3.582032 8 8v80c0 4.414063-3.578125 8-8 8zm-72-16h64v-64h-64zm0 0"/><path d="m128.003906 144.007812h-16v-115.0625c-20.753906 26.566407-32 59.085938-32 93.335938v21.726562h-16v-21.726562c0-44.867188 17.480469-87.058594 49.199219-118.792969l1.152344-1.152343c2.296875-2.2812505 5.734375-2.96875 8.71875-1.71875 2.984375 1.238281 4.929687 4.160156 4.929687 7.390624zm0 0"/><path d="m120.003906 368.007812c-2.082031 0-4.121094-.808593-5.648437-2.335937l-1.144531-1.136719c-31.726563-31.742187-49.207032-73.9375-49.207032-118.800781v-21.726563h16v21.726563c0 34.242187 11.246094 66.761719 32 93.335937v-115.0625h16v136c0 3.230469-1.945312 6.152344-4.929687 7.382813-.992188.417969-2.039063.617187-3.070313.617187zm0 0"/><path d="m208.003906 344.007812h-16c-2.671875 0-5.167968-1.335937-6.65625-3.558593l-16-24c-2.121094-3.167969-1.695312-7.402344 1-10.097657l24-24c3.128906-3.128906 8.183594-3.128906 11.3125 0l16 16c1.984375 1.992188 2.792969 4.871094 2.105469 7.601563l-8 32c-.898437 3.558594-4.089844 6.054687-7.761719 6.054687zm-11.71875-16h5.46875l5.394532-21.542968-7.144532-7.144532-13.703125 13.703126zm0 0"/><path d="m264.003906 296.007812h-16c-2.511718 0-4.886718-1.183593-6.398437-3.199218l-24-32c-2.394531-3.183594-2.074219-7.640625.742187-10.457032l16-16c1.496094-1.503906 3.527344-2.34375 5.65625-2.34375h24c2.671875 0 5.167969 1.335938 6.65625 3.558594l16 24c1.792969 2.6875 1.792969 6.183594 0 8.871094l-16 24c-1.488281 2.234375-3.984375 3.570312-6.65625 3.570312zm-12-16h7.71875l10.664063-16-10.664063-16h-16.40625l-8.753906 8.75zm0 0"/><path d="m40.011719 376.007812c-.648438 0-1.296875-.082031-1.945313-.242187l-32-8c-3.566406-.886719-6.06249975-4.085937-6.06249975-7.757813v-24c0-1.242187.28906275-2.472656.83984375-3.578124l8-16c1.359375-2.710938 4.128906-4.421876 7.160156-4.421876h16c2.671875 0 5.167969 1.335938 6.65625 3.558594l16 24c1.367188 2.058594 1.710938 4.625.925782 6.96875l-8 24c-1.101563 3.328125-4.207032 5.472656-7.574219 5.472656zm-24.007813-22.25 18.75 4.691407 4.425782-13.257813-11.457032-17.183594h-6.773437l-4.945313 9.886719zm0 0"/><path d="m440.003906 80.007812c-4.425781 0-8-3.585937-8-8 0-13.230468-10.769531-24-24-24-4.425781 0-8-3.585937-8-8 0-4.417968 3.574219-8 8-8 13.230469 0 24-10.769531 24-24 0-4.417968 3.574219-7.9999995 8-7.9999995 4.421875 0 8 3.5820315 8 7.9999995 0 13.230469 10.769532 24 24 24 4.421875 0 8 3.582032 8 8 0 4.414063-3.578125 8-8 8-13.230468 0-24 10.769532-24 24 0 4.414063-3.578125 8-8 8zm-8.023437-40c3.039062 2.28125 5.742187 4.992188 8.023437 8.023438 2.28125-3.03125 4.984375-5.742188 8.023438-8.023438-3.039063-2.28125-5.742188-4.992187-8.023438-8.023437-2.28125 3.03125-4.984375 5.742187-8.023437 8.023437zm0 0"/><path d="m376.003906 128.007812c-4.425781 0-8-3.585937-8-8 0-13.230468-10.769531-24-24-24-4.425781 0-8-3.585937-8-8 0-4.417968 3.574219-8 8-8 13.230469 0 24-10.769531 24-24 0-4.417968 3.574219-8 8-8 4.421875 0 8 3.582032 8 8 0 13.230469 10.769532 24 24 24 4.421875 0 8 3.582032 8 8 0 4.414063-3.578125 8-8 8-13.230468 0-24 10.769532-24 24 0 4.414063-3.578125 8-8 8zm-8.023437-40c3.039062 2.28125 5.742187 4.992188 8.023437 8.023438 2.28125-3.03125 4.984375-5.742188 8.023438-8.023438-3.039063-2.28125-5.742188-4.992187-8.023438-8.023437-2.28125 3.03125-4.984375 5.742187-8.023437 8.023437zm0 0"/></svg>