<svg width="512" height="512" xmlns="http://www.w3.org/2000/svg">

 <g>
  <title>background</title>
  <rect fill="none" id="canvas_background" height="402" width="582" y="-1" x="-1"/>
 </g>
 <g>
  <title>Layer 1</title>
  <circle fill="#ff8103" id="svg_13" r="248.5" cy="256" cx="256" class="st25"/>
  <path fill="#ff9d4d" id="svg_14" d="m32.4,256c0,-133.1 104.6,-241.7 236,-248.2c-4.1,-0.2 -8.3,-0.3 -12.5,-0.3c-137.2,0 -248.4,111.2 -248.4,248.5s111.2,248.5 248.5,248.5c4.2,0 8.3,-0.1 12.5,-0.3c-131.5,-6.5 -236.1,-115.1 -236.1,-248.2z" class="st26"/>
  <circle fill="#f9c04a" id="svg_15" r="195.899994" cy="256.723164" cx="256" class="st4"/>
  <path fill="#ffda9f" id="svg_16" d="m85,256c0,-104 81.1,-189.1 183.4,-195.5c-4.1,-0.3 -8.3,-0.4 -12.5,-0.4c-108.1,0 -195.8,87.7 -195.8,195.9s87.7,195.9 195.9,195.9c4.2,0 8.3,-0.1 12.5,-0.4c-102.4,-6.4 -183.5,-91.5 -183.5,-195.5z" class="st7"/>
  <path fill="#133260" id="svg_23" d="m407.2,109.3c-1.2,0 -2.3,-0.4 -3.2,-1.3c-1.8,-1.8 -1.8,-4.6 0,-6.4l11.5,-11.5c1.8,-1.8 4.6,-1.8 6.4,0c1.8,1.8 1.8,4.6 0,6.4l-11.5,11.5c-0.9,0.9 -2.1,1.3 -3.2,1.3z" class="st11"/>
  <path fill="#133260" id="svg_25" d="m93.3,423.2c-1.2,0 -2.3,-0.4 -3.2,-1.3c-1.8,-1.8 -1.8,-4.6 0,-6.4l11.5,-11.5c1.8,-1.8 4.6,-1.8 6.4,0c1.8,1.8 1.8,4.6 0,6.4l-11.5,11.5c-0.9,0.9 -2.1,1.3 -3.2,1.3z" class="st11"/>
  <path fill="#133260" id="svg_28" d="m418.7,423.2c-1.2,0 -2.3,-0.4 -3.2,-1.3l-11.5,-11.5c-1.8,-1.8 -1.8,-4.6 0,-6.4c1.8,-1.8 4.6,-1.8 6.4,0l11.5,11.5c1.8,1.8 1.8,4.6 0,6.4c-0.9,0.9 -2,1.3 -3.2,1.3z" class="st11"/>
  <path fill="#133260" id="svg_30" d="m104.8,109.3c-1.2,0 -2.3,-0.4 -3.2,-1.3l-11.5,-11.5c-1.8,-1.8 -1.8,-4.6 0,-6.4c1.8,-1.8 4.6,-1.8 6.4,0l11.5,11.5c1.8,1.8 1.8,4.6 0,6.4c-0.9,0.9 -2,1.3 -3.2,1.3z" class="st11"/>
  <g id="svg_33">
   <path fill="#133260" id="svg_34" d="m486.1,260.5l-16.3,0c-2.5,0 -4.5,-2 -4.5,-4.5s2,-4.5 4.5,-4.5l16.3,0c2.5,0 4.5,2 4.5,4.5s-2,4.5 -4.5,4.5z" class="st11"/>
  </g>
  <g id="svg_35">
   <path fill="#133260" id="svg_36" d="m42.2,260.5l-16.3,0c-2.5,0 -4.5,-2 -4.5,-4.5s2,-4.5 4.5,-4.5l16.3,0c2.5,0 4.5,2 4.5,4.5s-2,4.5 -4.5,4.5z" class="st11"/>
  </g>
  <g id="svg_37">
   <g id="svg_38">
    <path fill="#133260" id="svg_39" d="m256,490.6c-2.5,0 -4.5,-2 -4.5,-4.5l0,-16.3c0,-2.5 2,-4.5 4.5,-4.5s4.5,2 4.5,4.5l0,16.3c0,2.5 -2,4.5 -4.5,4.5z" class="st11"/>
   </g>
   <g id="svg_40">
    <path fill="#133260" id="svg_41" d="m256,46.7c-2.5,0 -4.5,-2 -4.5,-4.5l0,-16.3c0,-2.5 2,-4.5 4.5,-4.5s4.5,2 4.5,4.5l0,16.3c0,2.5 -2,4.5 -4.5,4.5z" class="st11"/>
   </g>
  </g>
  <g id="svg_42">
   <g id="svg_43">
    <path fill="#133260" id="svg_44" d="m256,509c-67.6,0 -131.1,-26.3 -178.9,-74.1c-47.8,-47.8 -74.1,-111.3 -74.1,-178.9s26.3,-131.1 74.1,-178.9c47.8,-47.8 111.3,-74.1 178.9,-74.1s131.1,26.3 178.9,74.1c47.8,47.8 74.1,111.3 74.1,178.9s-26.3,131.1 -74.1,178.9c-47.8,47.8 -111.3,74.1 -178.9,74.1zm0,-497c-65.2,0 -126.5,25.4 -172.5,71.5c-46.1,46 -71.5,107.3 -71.5,172.5s25.4,126.5 71.5,172.5c46,46.1 107.3,71.5 172.5,71.5s126.5,-25.4 172.5,-71.5c46.1,-46 71.5,-107.3 71.5,-172.5s-25.4,-126.5 -71.5,-172.5c-46,-46.1 -107.3,-71.5 -172.5,-71.5z" class="st11"/>
   </g>
   <g id="svg_45">
    <path fill="#133260" id="svg_46" d="m256,456.4c-110.5,0 -200.4,-89.9 -200.4,-200.4s89.9,-200.4 200.4,-200.4s200.4,89.9 200.4,200.4s-89.9,200.4 -200.4,200.4zm0,-391.8c-105.5,0 -191.4,85.9 -191.4,191.4s85.9,191.4 191.4,191.4s191.4,-85.9 191.4,-191.4s-85.9,-191.4 -191.4,-191.4z" class="st11"/>
   </g>
  </g>
  <text stroke="null" transform="matrix(4.671474705858862,0,0,5.134268873849464,-958.9570842987827,-1128.9921905130193) " xml:space="preserve" text-anchor="start" font-family="Helvetica, Arial, sans-serif" font-size="24" id="svg_51" y="278.009113" x="239.398296" fill-opacity="null" stroke-opacity="null" stroke-width="0" fill="#000000">Sx3</text>
 </g>
</svg>